<svg id="visual" viewBox="0 0 900 600" width="900" height="600" xmlns="http://www.w3.org/2000/svg" xmlns:xlink="http://www.w3.org/1999/xlink" version="1.1"><rect x="0" y="0" width="900" height="600" fill="#FF0066"></rect><g transform="translate(445.59754626544327 233.24149096035362)"><path d="M133.8 -220.7C162.2 -215.3 166.4 -156.9 205.1 -111.3C243.7 -65.7 316.9 -32.8 342.6 14.8C368.3 62.5 346.5 125 325.3 200.8C304 276.6 283.3 365.6 229.1 374.9C175 384.1 87.5 313.6 27.2 266.5C-33.2 219.4 -66.3 195.9 -115.6 183.8C-164.8 171.7 -230 171.1 -270.1 142.4C-310.2 113.7 -325.1 56.8 -336.1 -6.3C-347 -69.5 -354.1 -139 -323.7 -184.5C-293.3 -229.9 -225.4 -251.4 -165.2 -238.5C-105 -225.6 -52.5 -178.4 0.1 -178.6C52.7 -178.7 105.3 -226.2 133.8 -220.7" fill="#BB004B"></path></g></svg>