<svg id="visual" viewBox="0 0 900 600" width="900" height="600" xmlns="http://www.w3.org/2000/svg" xmlns:xlink="http://www.w3.org/1999/xlink" version="1.1"><g transform="translate(1033.8914290247303 56.32364934839029)"><path d="M133.8 -334.8C156.6 -218.6 146.7 -148.8 212.3 -100.7C277.9 -52.7 418.9 -26.3 461.4 24.5C503.8 75.3 447.6 150.7 401 231.6C354.5 312.6 317.5 399.2 252.2 467.4C187 535.6 93.5 585.3 38.2 519.2C-17.2 453.1 -34.4 271.2 -153.5 234.1C-272.5 197 -493.5 304.8 -616.2 289.9C-739 275 -763.5 137.5 -731.3 18.6C-699.1 -100.3 -610.2 -200.7 -529.4 -288.1C-448.6 -375.6 -375.8 -450.2 -288.9 -529.4C-202 -608.5 -101 -692.3 -22.8 -652.9C55.5 -613.5 111 -450.9 133.8 -334.8" fill="#BB004B"></path></g></svg>