<svg id="visual" viewBox="0 0 900 600" width="900" height="600" xmlns="http://www.w3.org/2000/svg" xmlns:xlink="http://www.w3.org/1999/xlink" version="1.1"><g transform="translate(944.5047454268663 -171.0252083511008)"><path d="M246.1 -409.7C334.6 -375.3 432.7 -340.9 472 -272.6C511.2 -204.3 491.6 -102.2 511.5 11.5C531.5 125.2 590.9 250.3 588.6 382.5C586.3 514.8 522.1 654 413.7 766.4C305.3 878.9 152.7 964.4 43.3 889.4C-66 814.3 -132 578.6 -271.6 484.2C-411.1 389.8 -624.3 436.6 -668.5 379.5C-712.6 322.3 -587.8 161.2 -505.1 47.8C-422.3 -65.6 -381.7 -131.3 -367.1 -239.7C-352.5 -348 -364 -499.2 -307.2 -551.9C-250.3 -604.6 -125.2 -558.8 -23.2 -518.7C78.8 -478.5 157.7 -444.1 246.1 -409.7" fill="#BB004B"></path></g></svg>