<svg id="visual" viewBox="0 0 900 600" width="900" height="600" xmlns="http://www.w3.org/2000/svg" xmlns:xlink="http://www.w3.org/1999/xlink" version="1.1"><g transform="translate(835.3256010873763 -97.45932392555096)"><path d="M393.1 -513.7C552.3 -509.4 753.7 -472.8 777.9 -369.9C802 -267 649 -97.9 506.3 -10.8C363.7 76.2 231.4 81.1 197.6 235.5C163.8 389.9 228.4 693.9 203.4 708.5C178.3 723.1 63.7 448.4 -107.3 388C-278.4 327.5 -505.7 481.4 -589.1 465.6C-672.5 449.9 -611.9 264.6 -613.9 102C-615.9 -60.6 -680.4 -200.4 -634.8 -285.5C-589.1 -370.7 -433.2 -401.1 -309.1 -421.4C-184.9 -441.7 -92.4 -451.9 12.3 -470.9C117 -490 233.9 -518 393.1 -513.7" fill="#BB004B"></path></g></svg>