<svg id="visual" viewBox="0 0 900 600" width="900" height="600" xmlns="http://www.w3.org/2000/svg" xmlns:xlink="http://www.w3.org/1999/xlink" version="1.1"><g transform="translate(822.4581432644079 26.650069396540005)"><path d="M341.8 -550C468.4 -450.4 613.9 -398.7 590.7 -310.6C567.4 -222.5 375.3 -98.1 274.4 -18C173.5 62.1 163.8 97.8 182.6 261.4C201.4 424.9 248.6 716.2 216.7 714.9C184.9 713.6 74 419.8 -61.4 326.4C-196.7 233.1 -356.4 340.2 -402.6 326.7C-448.7 313.2 -381.2 179.2 -382.7 64.7C-384.1 -49.8 -454.5 -144.8 -434.5 -202.6C-414.6 -260.5 -304.3 -281.2 -216.9 -398.6C-129.4 -516 -64.7 -730 21.4 -763.4C107.6 -796.7 215.2 -649.5 341.8 -550" fill="#BB004B"></path></g></svg>