<svg id="visual" viewBox="0 0 900 600" width="900" height="600" xmlns="http://www.w3.org/2000/svg" xmlns:xlink="http://www.w3.org/1999/xlink" version="1.1"><g transform="translate(898.9664895709295 70.52102556069019)"><path d="M326.6 -549.6C437.1 -501.8 550.3 -442.4 573.8 -348.9C597.3 -255.3 531.1 -127.7 547.9 9.7C564.6 147 664.2 294 634.2 376.3C604.2 458.5 444.6 476.1 317.3 508.8C190 541.4 95 589.2 16.8 560.2C-61.5 531.2 -123 425.4 -252 393.7C-381.1 362 -577.7 404.5 -625.4 351.3C-673.2 298 -572.1 149 -491.8 46.4C-411.4 -56.3 -351.9 -112.5 -348.4 -242.4C-344.9 -372.3 -397.4 -575.9 -348.7 -659.4C-300 -742.9 -150 -706.5 -21 -670.1C108 -633.7 216 -597.5 326.6 -549.6" fill="#BB004B"></path></g></svg>