<svg id="visual" viewBox="0 0 900 600" width="900" height="600" xmlns="http://www.w3.org/2000/svg" xmlns:xlink="http://www.w3.org/1999/xlink" version="1.1"><path d="M0 394L21.5 396C43 398 86 402 128.8 417.3C171.7 432.7 214.3 459.3 257.2 472.8C300 486.3 343 486.7 385.8 468.5C428.7 450.3 471.3 413.7 514.2 395.8C557 378 600 379 642.8 394.2C685.7 409.3 728.3 438.7 771.2 442.2C814 445.7 857 423.3 878.5 412.2L900 401L900 601L878.5 601C857 601 814 601 771.2 601C728.3 601 685.7 601 642.8 601C600 601 557 601 514.2 601C471.3 601 428.7 601 385.8 601C343 601 300 601 257.2 601C214.3 601 171.7 601 128.8 601C86 601 43 601 21.5 601L0 601Z" fill="#1E3A8A" stroke-linecap="round" stroke-linejoin="miter"></path></svg>